<?xml version="1.0" encoding="UTF-8" standalone="no"?>
<svg
   class="logo-desktop"
   width="256"
   height="256"
   viewBox="0 0 60 34"
   fill="none"
   version="1.1"
   id="svg1"
   sodipodi:docname="curseforge-icon.svg"
   inkscape:version="1.4.3 (0d15f75042, 2025-12-25)"
   xmlns:inkscape="http://www.inkscape.org/namespaces/inkscape"
   xmlns:sodipodi="http://sodipodi.sourceforge.net/DTD/sodipodi-0.dtd"
   xmlns="http://www.w3.org/2000/svg"
   xmlns:svg="http://www.w3.org/2000/svg">
  <defs
     id="defs1">
    <clipPath
       clipPathUnits="userSpaceOnUse"
       id="clipPath3">
      <ellipse
         style="opacity:0.579099;fill:#000000"
         id="ellipse3"
         cx="24.293287"
         cy="14.575972"
         rx="28.828033"
         ry="28.342167" />
    </clipPath>
  </defs>
  <sodipodi:namedview
     id="namedview1"
     pagecolor="#505050"
     bordercolor="#eeeeee"
     borderopacity="1"
     inkscape:showpageshadow="0"
     inkscape:pageopacity="0"
     inkscape:pagecheckerboard="0"
     inkscape:deskcolor="#505050"
     inkscape:zoom="6.1745454"
     inkscape:cx="103.00353"
     inkscape:cy="34.091579"
     inkscape:window-width="2280"
     inkscape:window-height="1486"
     inkscape:window-x="0"
     inkscape:window-y="0"
     inkscape:window-maximized="1"
     inkscape:current-layer="svg1" />
  <path
     fill-rule="evenodd"
     clip-rule="evenodd"
     d="M 50.8037,3.99939 C 49.1655,9.0403 38.7926,10.7687 38.7926,10.7687 v 6e-4 c -14.9963,5.4664 1.7647,15.9098 1.7647,15.9098 l 2.1777,7.3204 H 19.6092 c 3.4078,-3.6249 7.7853,-5.8958 12.1387,-7.3496 -11.4398,-0.2054 -17.6794,4.0557 -20.9532,7.3496 l 2.0936,-7.3204 c 0,0 12.209,-7.6075 6.4628,-13.2354 C 15.1532,10.08 4.30095,10.6763 4.30095,10.6763 V 5.27308 L -0.16195524,0.32342221 34.9136,-4.88281e-4 V 3.99939 Z M 121.706,10.024 c 0,-1.48312 0.711,-2.33503 1.951,-2.33503 0.681,0 1.261,0.21594 1.825,0.68343 l 0.103,0.08543 1.224,-2.18555 -0.085,-0.0617 c -0.963,-0.71191 -2.029,-1.05837 -3.26,-1.05837 -2.854,0 -4.557,1.86994 -4.557,4.99999 v 0.8163 h -1.944 l -0.635,2.5652 h 2.579 v 10.306 h 2.799 v -10.306 h 4.174 v -2.5652 h -4.174 z M 65.3484,20.0927 c -0.8986,0.9113 -1.788,1.3005 -2.9732,1.3005 -2.1479,0 -3.5348,-1.5829 -3.5348,-4.0294 0,-2.4466 1.5107,-4.0769 3.6723,-4.0769 1.1187,0 1.9967,0.3821 2.7646,1.2031 l 0.094,0.0997 1.4717,-2.055 -0.0711,-0.0712 c -1.1278,-1.1462 -2.5903,-1.7276 -4.3486,-1.7276 -3.6723,0 -6.336,2.7765 -6.336,6.6041 0,3.8277 2.462,6.6279 6.1274,6.6279 1.8729,0 3.3423,-0.6099 4.626,-1.9174 l 0.0734,-0.0736 -1.4717,-1.9767 -0.0917,0.0925 z m 12.1335,-2.4489 c 0,2.3635 -1.0752,3.7209 -2.9457,3.7209 -1.7285,0 -2.6041,-1.0916 -2.6041,-3.244 v -7.1522 h -2.799 v 7.3753 c 0,3.4243 1.6344,5.4674 4.3715,5.4674 1.662,0 2.9457,-0.6597 3.8214,-1.9601 l 0.0779,1.654 h 2.556 V 10.9685 h -2.478 z m 8.805,-6.6777 0.0596,2.1666 c 0.9352,-1.5615 2.4184,-2.354 4.4173,-2.354 h 0.1147 v 2.8144 L 90.757,13.5836 c -0.8092,-0.0546 -2.3222,0 -3.3446,0.9895 -0.6831,0.6597 -1.0293,1.6279 -1.0293,2.8737 v 6.056 H 83.5842 V 10.9661 Z m 11.5121,5.14 -0.0065,-0.0016 c -1.3818,-0.3197 -2.5747,-0.5957 -2.5747,-1.6026 0,-0.8661 0.807,-1.3835 2.1572,-1.3835 1.2241,0 2.2511,0.4343 3.134,1.3242 l 0.091,0.0925 1.451,-1.9055 -0.075,-0.0736 c -1.215,-1.2078 -2.7878,-1.8201 -4.6698,-1.8201 -2.838,0 -4.8208,1.6066 -4.8208,3.9084 0,2.8184 2.3285,3.3282 4.2026,3.7385 l 0.0061,0.0014 c 1.4373,0.3132 2.6775,0.5837 2.6775,1.7204 0,1.2648 -1.3525,1.4547 -2.1571,1.4547 -1.396,0 -2.4964,-0.496 -3.5692,-1.6113 l -0.0871,-0.0902 -1.5749,1.8723 0.078,0.0783 c 0.9857,1.0038 2.4643,2.1571 5.1761,2.1571 2.8656,0 4.8666,-1.6564 4.8666,-4.0294 0,-2.8367 -2.3839,-3.3881 -4.3022,-3.8318 l -0.0028,-6e-4 z m 6.054,1.2933 c 0,-3.8538 2.577,-6.6516 6.128,-6.6516 v 0.0024 c 3.514,0 5.783,2.6008 5.783,6.6278 0,0.121 -0.004,0.2349 -0.011,0.3512 -0.007,0.1116 -0.012,0.2231 -0.012,0.3394 v 0.1186 h -9.121 c 0.255,2.1856 1.55,3.3863 3.659,3.3863 1.343,0 2.393,-0.4603 3.408,-1.4926 l 0.09,-0.0902 1.474,1.8486 -0.067,0.0759 c -1.306,1.4737 -2.922,2.1595 -5.089,2.1595 -3.791,0 -6.242,-2.6198 -6.242,-6.6753 z m 6.105,-4.4494 c -1.653,0 -2.93,1.1746 -3.283,3.0042 h 6.297 C 112.729,14.0439 111.611,12.95 109.958,12.95 Z m 16.376,4.39 c 0,-4.3829 3.21,-6.6753 6.38,-6.6753 3.147,0 6.334,2.309 6.334,6.6753 0,4.3664 -3.198,6.6516 -6.357,6.6516 -3.159,0 -6.357,-2.2686 -6.357,-6.6516 z m 2.753,0 c 0,2.7219 1.814,4.1481 3.604,4.1481 1.79,0 3.604,-1.4333 3.604,-4.1718 0,-2.4418 -1.472,-4.148 -3.581,-4.148 -1.802,0 -3.627,1.4499 -3.627,4.1717 z m 15.384,-4.2073 -0.059,-2.1666 h -2.703 v 12.5367 h 2.799 v -6.056 c 0,-1.2458 0.346,-2.214 1.029,-2.8737 1.023,-0.9895 2.533,-1.0441 3.345,-0.9895 l 0.121,0.0095 v -2.8144 h -0.114 c -1.999,0 -3.482,0.7925 -4.415,2.354 z m 11.157,-2.5012 c 1.745,0 3.162,0.6977 4.122,2.0218 l 0.002,0.0024 0.042,-1.6872 h 2.698 v 11.7274 c 0,3.9653 -2.318,6.1509 -6.527,6.1509 -1.558,0 -2.918,-0.2943 -4.153,-0.8946 l -0.097,-0.0475 0.874,-2.392 0.112,0.0546 c 1.029,0.4983 2.114,0.7522 3.216,0.7522 2.54,0 3.776,-1.139 3.776,-3.4812 v -1.2221 c -0.963,1.3147 -2.41,2.0337 -4.113,2.0337 -3.445,0 -5.852,-2.7598 -5.852,-6.4855 0,-3.7256 2.535,-6.5329 5.9,-6.5329 z m -2.734,6.54 c 0,2.3588 1.35,4.0057 3.282,4.0057 2.086,0 3.489,-1.6018 3.489,-4.0057 0,-2.4038 -1.265,-3.9582 -3.305,-3.9582 -2.041,0 -3.466,1.5995 -3.466,3.9582 z m 18.322,-6.4237 c -3.55,0 -6.127,2.7978 -6.127,6.6516 0,4.0555 2.45,6.6753 6.242,6.6753 2.166,0 3.785,-0.6858 5.089,-2.1595 l 0.067,-0.0759 -1.474,-1.8486 -0.09,0.0902 c -1.015,1.0323 -2.065,1.4926 -3.409,1.4926 -2.109,0 -3.404,-1.2007 -3.658,-3.3863 h 9.121 v -0.1186 c 0,-0.1163 0.005,-0.2278 0.012,-0.3394 0.006,-0.1163 0.011,-0.2302 0.011,-0.3512 0,-4.027 -2.269,-6.6278 -5.784,-6.6278 z m -3.305,5.2064 c 0.353,-1.8296 1.627,-3.0042 3.282,-3.0042 1.656,0 2.772,1.0939 3.015,3.0042 z"
     fill="#dc5d35"
     id="path1"
     sodipodi:nodetypes="ccccccccccccccccssccccssccccccccccscsssccccssscccccsssccsscccccsccsccccsccccccssccccssccssccccsscccsccscsccsccccsssccssssssssssscccccsccccsccsccccssccccsscsssssssscssccccsccscscccscc"
     clip-path="url(#clipPath3)" />
</svg>
