<?xml version="1.0" standalone="no"?>
<!DOCTYPE svg PUBLIC "-//W3C//DTD SVG 20010904//EN"
 "http://www.w3.org/TR/2001/REC-SVG-20010904/DTD/svg10.dtd">
<svg version="1.0" xmlns="http://www.w3.org/2000/svg"
 width="500.000000pt" height="500.000000pt" viewBox="0 0 500.000000 500.000000"
 preserveAspectRatio="xMidYMid meet">
<metadata>
Created by potrace 1.11, written by Peter Selinger 2001-2013
</metadata>
<g transform="translate(0.000000,500.000000) scale(0.100000,-0.100000)"
fill="#000000" stroke="none">
<path d="M1722 4788 c2 -81 6 -102 18 -103 8 -2 47 -6 85 -9 165 -16 247 -40
299 -85 27 -24 57 -88 62 -134 10 -93 11 -137 5 -141 -3 -2 -51 -7 -106 -11
-55 -4 -102 -8 -105 -10 -3 -1 -32 -6 -65 -9 -92 -10 -298 -55 -420 -91 -503
-150 -886 -401 -1132 -743 -126 -173 -238 -444 -268 -647 -20 -127 -23 -181
-20 -340 4 -203 7 -230 40 -370 37 -154 60 -220 125 -350 90 -181 256 -387
410 -510 292 -233 646 -387 1080 -470 89 -17 241 -35 335 -41 61 -3 115 -7
121 -9 10 -3 10 -27 0 -156 -13 -172 -108 -234 -386 -254 -127 -10 -115 2
-115 -111 l0 -99 813 -3 812 -2 0 103 0 104 -42 1 c-24 1 -65 4 -93 7 -199 21
-283 52 -325 120 -30 49 -40 88 -46 192 -5 73 -3 94 7 97 8 2 59 7 114 10 125
8 297 32 400 56 28 6 57 13 65 15 35 7 109 27 170 46 519 163 923 458 1149
840 102 172 188 430 206 619 4 36 8 71 11 79 6 19 5 293 -1 356 -76 716 -553
1223 -1374 1460 -161 46 -377 88 -521 101 -41 3 -81 8 -90 9 -8 2 -44 4 -79 4
l-63 1 6 85 c9 137 46 199 143 235 66 25 193 45 321 52 l42 2 0 103 0 103
-795 0 -796 0 3 -102z m469 -716 c4 -20 4 -3099 1 -3110 -6 -16 -63 -11 -233
22 -187 36 -440 142 -593 249 -361 253 -570 632 -613 1107 -13 150 -8 416 11
506 2 12 7 37 10 55 11 70 47 197 76 274 150 387 460 675 878 815 102 34 247
68 327 77 27 3 51 6 52 7 6 5 83 3 84 -2z m764 -8 c79 -11 101 -15 163 -29
108 -25 243 -75 354 -130 422 -209 686 -579 765 -1070 17 -108 24 -452 10
-562 -91 -750 -589 -1221 -1397 -1319 l-50 -6 0 1567 0 1566 58 -5 c31 -4 75
-9 97 -12z"/>
</g>
</svg>
