<svg xmlns="http://www.w3.org/2000/svg" xmlns:xlink="http://www.w3.org/1999/xlink" width="32" height="32" viewBox="0 0 32 32"><defs><radialGradient xlink:href="#a" id="d" cx="10.2" cy="24" r="9" fx="10.2" fy="24" gradientTransform="translate(-3.6 -8)scale(1.33333)" gradientUnits="userSpaceOnUse"/><radialGradient xlink:href="#a" id="g" cx="24.35" cy="24" r="8.251" fx="24.35" fy="24" gradientTransform="translate(-11.416 -10.906)scale(1.45444)" gradientUnits="userSpaceOnUse"/><radialGradient xlink:href="#b" id="e" cx="16" cy="14" r="12" fx="16" fy="14" gradientUnits="userSpaceOnUse"/><radialGradient xlink:href="#c" id="f" cx="20" cy="30" r="12" fx="20" fy="30" gradientUnits="userSpaceOnUse"/><linearGradient id="a"><stop offset="0" style="stop-color:#fff;stop-opacity:1"/><stop offset=".3" style="stop-color:#fff;stop-opacity:1"/><stop offset=".7" style="stop-color:#969696;stop-opacity:1"/><stop offset="1" style="stop-color:#636363;stop-opacity:1"/></linearGradient><linearGradient id="c"><stop offset="0" style="stop-color:#000;stop-opacity:.5"/><stop offset="1" style="stop-color:#000;stop-opacity:0"/></linearGradient><linearGradient id="b"><stop offset="0" style="stop-color:#80c7ff;stop-opacity:1"/><stop offset=".5" style="stop-color:#3398ff;stop-opacity:1"/><stop offset="1" style="stop-color:#0061cc;stop-opacity:1"/></linearGradient></defs><path d="M22 25a9 9 0 1 1-18 0 9 9 0 0 1 18 0" style="fill:url(#d);fill-opacity:1;stroke:none;stroke-width:2.57144" transform="translate(-4 -4)"/><path d="M20 6C13.517 6 8.227 11.135 8 17.563 9.138 23.603 13.693 28.414 19.563 30H20c6.627 0 12-5.373 12-12S26.627 6 20 6" style="display:inline;fill:url(#e);fill-opacity:1;stroke:none;stroke-width:2" transform="translate(-4 -4)"/><path d="M20 6C13.517 6 8.227 11.135 8 17.563 9.138 23.603 13.693 28.414 19.563 30H20c6.627 0 12-5.373 12-12S26.627 6 20 6" style="display:inline;fill:url(#f);fill-opacity:1;stroke:none;stroke-width:2" transform="translate(-4 -4)"/><path d="M31.938 17.5c-6.203 1.294-11.145 6.235-12.438 12.438-.004.02.004.044 0 .062 1.611 2.432 4.364 4 7.5 4a9 9 0 0 0 9-9c0-3.136-1.568-5.889-4-7.5z" style="display:inline;fill:url(#g);fill-opacity:1;stroke:none;stroke-width:2" transform="translate(-4 -4)"/></svg>